<svg width="512" height="512" viewBox="0 0 512 512" fill="none" xmlns="http://www.w3.org/2000/svg">
  <defs>
    <linearGradient id="bg" x1="64" y1="48" x2="448" y2="464" gradientUnits="userSpaceOnUse">
      <stop stop-color="#1C1917"/>
      <stop offset="0.55" stop-color="#78350F"/>
      <stop offset="1" stop-color="#B45309"/>
    </linearGradient>
    <linearGradient id="lens" x1="150" y1="124" x2="368" y2="366" gradientUnits="userSpaceOnUse">
      <stop stop-color="#FFF7ED"/>
      <stop offset="1" stop-color="#FDBA74"/>
    </linearGradient>
    <linearGradient id="accent" x1="186" y1="146" x2="326" y2="302" gradientUnits="userSpaceOnUse">
      <stop stop-color="#FEF3C7"/>
      <stop offset="1" stop-color="#FB7185"/>
    </linearGradient>
  </defs>
  <rect x="24" y="24" width="464" height="464" rx="104" fill="url(#bg)"/>
  <circle cx="398" cy="124" r="42" fill="#FBBF24" fill-opacity="0.2"/>
  <circle cx="126" cy="388" r="62" fill="#FDBA74" fill-opacity="0.12"/>
  <path d="M150 188C150 166.909 167.091 149.818 188.182 149.818H210.334L228.179 124H283.821L301.666 149.818H323.818C344.909 149.818 362 166.909 362 188V314C362 335.091 344.909 352.182 323.818 352.182H188.182C167.091 352.182 150 335.091 150 314V188Z" fill="url(#lens)"/>
  <circle cx="256" cy="250" r="74" fill="#1C1917"/>
  <circle cx="256" cy="250" r="58" fill="url(#accent)"/>
  <circle cx="256" cy="250" r="36" fill="#7C2D12"/>
  <circle cx="318" cy="184" r="12" fill="#FBBF24"/>
  <path d="M140 372C189.166 333.565 324.826 332.863 374 372" stroke="#FDE68A" stroke-width="20" stroke-linecap="round" stroke-opacity="0.85"/>
  <path d="M192 116L228 84H284L320 116" stroke="#FED7AA" stroke-width="18" stroke-linecap="round" stroke-linejoin="round"/>
</svg>
